<svg width="64" height="64" viewBox="0 0 64 64" fill="none" xmlns="http://www.w3.org/2000/svg">
  <rect x="1" y="1" width="62" height="62" rx="14" fill="#151515" stroke="#2A2822" stroke-width="2"/>
  <path d="M17 39.5L21.4 36.9C22.4 38.8 23.9 39.9 25.9 39.9C28.3 39.9 29.8 38.6 29.8 36.7C29.8 34.8 28.3 33.9 26 33L24.6 32.4C20.6 30.7 18 28.6 18 24.2C18 19.8 21.3 17 26.3 17C29.8 17 32.4 18.2 34.2 21.2L30 23.9C29.1 22.3 28.1 21.7 26.3 21.7C24.5 21.7 23.4 22.8 23.4 24.2C23.4 26 24.5 26.7 27 27.8L28.4 28.4C33.1 30.4 35.8 32.5 35.8 37.2C35.8 42.3 31.8 45.1 26.4 45.1C21.1 45.1 17.8 42.6 17 39.5Z" fill="#F2C75B"/>
  <path d="M39.2 17H44.5V39.1H54.9V43.8H39.2V17Z" fill="#F2C75B"/>
</svg>
