<svg width="1600" height="720" viewBox="0 0 1600 720" fill="none" xmlns="http://www.w3.org/2000/svg">
  <rect width="1600" height="720" fill="#F3EFE8"/>
  <g stroke="#D8D2C8" stroke-width="2">
    <path d="M120 150H1480"/>
    <path d="M120 280H1480"/>
    <path d="M120 410H1480"/>
    <path d="M120 540H1480"/>
    <path d="M230 90V630"/>
    <path d="M470 90V630"/>
    <path d="M710 90V630"/>
    <path d="M950 90V630"/>
    <path d="M1190 90V630"/>
    <path d="M1430 90V630"/>
  </g>
  <path d="M210 520C300 470 360 430 470 440C560 447 590 530 705 520C815 510 835 410 948 395C1060 380 1140 430 1230 395C1320 360 1370 300 1410 230" stroke="#3F5F46" stroke-width="10" stroke-linecap="round" stroke-linejoin="round"/>
  <circle cx="210" cy="520" r="12" fill="#3F5F46"/>
  <circle cx="1410" cy="230" r="12" fill="#3F5F46"/>
  <circle cx="948" cy="395" r="10" fill="#A35F3D"/>
  <rect x="120" y="70" width="370" height="72" rx="8" fill="#F7F4EF" stroke="#D8D2C8"/>
  <text x="146" y="112" font-family="ui-monospace, SFMono-Regular, Menlo, monospace" font-size="26" letter-spacing="2" fill="#6F6A61">OULU CYCLING ROUTE</text>
</svg>

